<svg xmlns="http://www.w3.org/2000/svg" xmlns:xlink="http://www.w3.org/1999/xlink" width="500" zoomAndPan="magnify" viewBox="0 0 375 374.999991" height="500" preserveAspectRatio="xMidYMid meet" version="1.0"><defs><g/><clipPath id="77fd23a324"><rect x="0" width="9" y="0" height="11"/></clipPath><clipPath id="3bc3ae6a34"><path d="M 82 84 L 273 84 L 273 255.589844 L 82 255.589844 Z M 82 84 " clip-rule="nonzero"/></clipPath></defs><g transform="matrix(1, 0, 0, 1, 164, 215)"><g clip-path="url(#77fd23a324)"><g fill="#171716" fill-opacity="1"><g transform="translate(1.426003, 3.633318)"><g><path d="M 0.46875 -0.125 C 0.382812 -0.101562 0.304688 -0.0976562 0.234375 -0.109375 C 0.160156 -0.128906 0.0976562 -0.160156 0.046875 -0.203125 C -0.00390625 -0.253906 -0.046875 -0.320312 -0.078125 -0.40625 C -0.0976562 -0.476562 -0.0976562 -0.546875 -0.078125 -0.609375 C -0.0546875 -0.679688 -0.0195312 -0.742188 0.03125 -0.796875 C 0.0820312 -0.859375 0.148438 -0.898438 0.234375 -0.921875 C 0.285156 -0.941406 0.34375 -0.945312 0.40625 -0.9375 C 0.46875 -0.925781 0.523438 -0.90625 0.578125 -0.875 L 0.484375 -0.734375 C 0.421875 -0.773438 0.351562 -0.785156 0.28125 -0.765625 C 0.226562 -0.753906 0.1875 -0.734375 0.15625 -0.703125 C 0.125 -0.671875 0.101562 -0.628906 0.09375 -0.578125 C 0.0820312 -0.535156 0.0820312 -0.492188 0.09375 -0.453125 C 0.113281 -0.398438 0.140625 -0.359375 0.171875 -0.328125 C 0.203125 -0.296875 0.238281 -0.273438 0.28125 -0.265625 C 0.320312 -0.265625 0.367188 -0.269531 0.421875 -0.28125 C 0.492188 -0.300781 0.550781 -0.347656 0.59375 -0.421875 L 0.75 -0.359375 C 0.71875 -0.304688 0.675781 -0.257812 0.625 -0.21875 C 0.570312 -0.175781 0.519531 -0.144531 0.46875 -0.125 Z M 0.46875 -0.125 "/></g></g></g><g fill="#171716" fill-opacity="1"><g transform="translate(2.563558, 3.340866)"><g><path d="M 0.484375 0.0625 C 0.398438 0.0507812 0.328125 0.0234375 0.265625 -0.015625 C 0.203125 -0.0546875 0.15625 -0.109375 0.125 -0.171875 C 0.09375 -0.242188 0.0820312 -0.320312 0.09375 -0.40625 C 0.09375 -0.476562 0.113281 -0.539062 0.15625 -0.59375 C 0.207031 -0.65625 0.265625 -0.703125 0.328125 -0.734375 C 0.398438 -0.765625 0.476562 -0.773438 0.5625 -0.765625 C 0.644531 -0.753906 0.71875 -0.726562 0.78125 -0.6875 C 0.84375 -0.644531 0.890625 -0.585938 0.921875 -0.515625 C 0.953125 -0.453125 0.96875 -0.382812 0.96875 -0.3125 C 0.957031 -0.226562 0.925781 -0.15625 0.875 -0.09375 C 0.832031 -0.0390625 0.773438 0 0.703125 0.03125 C 0.640625 0.0625 0.566406 0.0703125 0.484375 0.0625 Z M 0.5 -0.09375 C 0.539062 -0.0820312 0.582031 -0.0859375 0.625 -0.109375 C 0.664062 -0.128906 0.695312 -0.15625 0.71875 -0.1875 C 0.75 -0.226562 0.769531 -0.273438 0.78125 -0.328125 C 0.78125 -0.367188 0.769531 -0.410156 0.75 -0.453125 C 0.738281 -0.503906 0.710938 -0.539062 0.671875 -0.5625 C 0.628906 -0.582031 0.585938 -0.597656 0.546875 -0.609375 C 0.492188 -0.609375 0.445312 -0.597656 0.40625 -0.578125 C 0.375 -0.566406 0.34375 -0.539062 0.3125 -0.5 C 0.289062 -0.457031 0.28125 -0.414062 0.28125 -0.375 C 0.269531 -0.320312 0.269531 -0.273438 0.28125 -0.234375 C 0.300781 -0.191406 0.328125 -0.15625 0.359375 -0.125 C 0.398438 -0.101562 0.445312 -0.09375 0.5 -0.09375 Z M 0.5 -0.09375 "/></g></g></g><g fill="#171716" fill-opacity="1"><g transform="translate(3.845876, 3.556885)"><g><path d="M 0.3125 0.1875 C 0.257812 0.15625 0.207031 0.113281 0.15625 0.0625 C 0.101562 0.0195312 0.0703125 -0.015625 0.0625 -0.046875 L 0.1875 -0.140625 C 0.207031 -0.117188 0.234375 -0.0859375 0.265625 -0.046875 C 0.296875 -0.015625 0.332031 0.015625 0.375 0.046875 C 0.425781 0.0664062 0.46875 0.0703125 0.5 0.0625 C 0.53125 0.0625 0.550781 0.0546875 0.5625 0.046875 C 0.5625 0.0234375 0.554688 0.0078125 0.546875 0 C 0.546875 -0.0195312 0.535156 -0.0390625 0.515625 -0.0625 C 0.492188 -0.0820312 0.472656 -0.109375 0.453125 -0.140625 C 0.398438 -0.171875 0.359375 -0.203125 0.328125 -0.234375 C 0.304688 -0.265625 0.289062 -0.300781 0.28125 -0.34375 C 0.269531 -0.382812 0.28125 -0.429688 0.3125 -0.484375 C 0.332031 -0.523438 0.359375 -0.554688 0.390625 -0.578125 C 0.429688 -0.597656 0.476562 -0.601562 0.53125 -0.59375 C 0.59375 -0.59375 0.65625 -0.570312 0.71875 -0.53125 C 0.757812 -0.519531 0.800781 -0.492188 0.84375 -0.453125 C 0.882812 -0.421875 0.910156 -0.382812 0.921875 -0.34375 L 0.828125 -0.25 C 0.773438 -0.3125 0.71875 -0.359375 0.65625 -0.390625 C 0.613281 -0.421875 0.570312 -0.4375 0.53125 -0.4375 C 0.5 -0.4375 0.476562 -0.425781 0.46875 -0.40625 C 0.457031 -0.375 0.457031 -0.34375 0.46875 -0.3125 C 0.488281 -0.289062 0.523438 -0.265625 0.578125 -0.234375 C 0.617188 -0.191406 0.65625 -0.15625 0.6875 -0.125 C 0.71875 -0.09375 0.738281 -0.0546875 0.75 -0.015625 C 0.757812 0.0234375 0.753906 0.0703125 0.734375 0.125 C 0.710938 0.15625 0.675781 0.179688 0.625 0.203125 C 0.582031 0.234375 0.535156 0.242188 0.484375 0.234375 C 0.441406 0.234375 0.382812 0.21875 0.3125 0.1875 Z M 0.3125 0.1875 "/></g></g></g><g fill="#171716" fill-opacity="1"><g transform="translate(4.777763, 4.082093)"><g><path d="M 0.53125 0.640625 L 0.890625 0.3125 L 0.421875 0.40625 L 0.375 0.34375 L 0.53125 -0.09375 L 0.171875 0.203125 L 0.0625 0.078125 L 0.671875 -0.421875 L 0.765625 -0.3125 L 0.578125 0.234375 L 1.140625 0.15625 L 1.25 0.28125 L 0.640625 0.78125 Z M 0.53125 0.640625 "/></g></g></g><g fill="#171716" fill-opacity="1"><g transform="translate(5.597655, 5.241847)"><g><path d="M 0.34375 0.65625 L 0.203125 0.6875 L 0.03125 0.09375 L 0.796875 -0.125 L 0.953125 0.453125 L 0.8125 0.484375 L 0.703125 0.078125 L 0.546875 0.125 L 0.65625 0.484375 L 0.5 0.53125 L 0.390625 0.171875 L 0.21875 0.234375 Z M 0.34375 0.65625 "/></g></g></g><g fill="#171716" fill-opacity="1"><g transform="translate(5.839848, 6.327074)"><g><path d="M 0.625 0.3125 L 0.640625 0.046875 L 0.796875 0.0625 L 0.75 0.765625 L 0.59375 0.75 L 0.609375 0.484375 L -0.03125 0.4375 L -0.015625 0.265625 Z M 0.625 0.3125 "/></g></g></g><g fill="#171716" fill-opacity="1"><g transform="translate(5.688367, 7.37968)"><g><path d="M 0.71875 0.375 L 0.65625 0.546875 L -0.09375 0.265625 L -0.03125 0.09375 Z M 0.71875 0.375 "/></g></g></g><g fill="#171716" fill-opacity="1"><g transform="translate(5.409751, 8.058364)"><g><path d="M -0.3125 0.359375 C -0.257812 0.296875 -0.195312 0.25 -0.125 0.21875 C -0.0507812 0.195312 0.015625 0.1875 0.078125 0.1875 C 0.148438 0.195312 0.21875 0.226562 0.28125 0.28125 C 0.34375 0.332031 0.382812 0.390625 0.40625 0.453125 C 0.4375 0.523438 0.445312 0.597656 0.4375 0.671875 C 0.425781 0.742188 0.394531 0.8125 0.34375 0.875 C 0.300781 0.925781 0.25 0.96875 0.1875 1 C 0.132812 1.03125 0.0820312 1.050781 0.03125 1.0625 L 0.015625 0.875 C 0.0976562 0.875 0.164062 0.84375 0.21875 0.78125 C 0.25 0.738281 0.265625 0.695312 0.265625 0.65625 C 0.273438 0.625 0.269531 0.585938 0.25 0.546875 C 0.226562 0.503906 0.203125 0.46875 0.171875 0.4375 C 0.128906 0.40625 0.0820312 0.382812 0.03125 0.375 C -0.0078125 0.363281 -0.046875 0.363281 -0.078125 0.375 C -0.117188 0.394531 -0.15625 0.425781 -0.1875 0.46875 C -0.238281 0.53125 -0.253906 0.597656 -0.234375 0.671875 L -0.40625 0.71875 C -0.414062 0.65625 -0.410156 0.59375 -0.390625 0.53125 C -0.378906 0.46875 -0.351562 0.410156 -0.3125 0.359375 Z M -0.3125 0.359375 "/></g></g></g><g fill="#171716" fill-opacity="1"><g transform="translate(4.61917, 8.933147)"><g><path d="M -0.328125 0.171875 C -0.273438 0.140625 -0.210938 0.113281 -0.140625 0.09375 C -0.078125 0.0820312 -0.0234375 0.078125 0.015625 0.078125 L 0.03125 0.234375 C -0.0078125 0.234375 -0.0507812 0.238281 -0.09375 0.25 C -0.132812 0.257812 -0.179688 0.28125 -0.234375 0.3125 C -0.273438 0.332031 -0.300781 0.351562 -0.3125 0.375 C -0.332031 0.40625 -0.335938 0.429688 -0.328125 0.453125 C -0.316406 0.472656 -0.300781 0.476562 -0.28125 0.46875 C -0.269531 0.46875 -0.25 0.46875 -0.21875 0.46875 C -0.195312 0.46875 -0.164062 0.460938 -0.125 0.453125 C -0.0703125 0.429688 -0.0234375 0.414062 0.015625 0.40625 C 0.0664062 0.40625 0.109375 0.410156 0.140625 0.421875 C 0.179688 0.441406 0.210938 0.472656 0.234375 0.515625 C 0.265625 0.554688 0.273438 0.597656 0.265625 0.640625 C 0.265625 0.679688 0.25 0.722656 0.21875 0.765625 C 0.1875 0.816406 0.132812 0.863281 0.0625 0.90625 C 0.03125 0.925781 -0.0078125 0.941406 -0.0625 0.953125 C -0.113281 0.972656 -0.15625 0.972656 -0.1875 0.953125 L -0.234375 0.828125 C -0.148438 0.816406 -0.078125 0.796875 -0.015625 0.765625 C 0.0351562 0.734375 0.0664062 0.707031 0.078125 0.6875 C 0.0976562 0.664062 0.101562 0.644531 0.09375 0.625 C 0.0703125 0.59375 0.046875 0.578125 0.015625 0.578125 C -0.00390625 0.578125 -0.046875 0.585938 -0.109375 0.609375 C -0.171875 0.628906 -0.222656 0.640625 -0.265625 0.640625 C -0.304688 0.648438 -0.347656 0.648438 -0.390625 0.640625 C -0.429688 0.628906 -0.460938 0.601562 -0.484375 0.5625 C -0.503906 0.519531 -0.507812 0.472656 -0.5 0.421875 C -0.5 0.378906 -0.484375 0.332031 -0.453125 0.28125 C -0.429688 0.238281 -0.390625 0.203125 -0.328125 0.171875 Z M -0.328125 0.171875 "/></g></g></g></g></g><g clip-path="url(#3bc3ae6a34)"><path fill="#ffffff" d="M 270.699219 185.597656 C 276.738281 173.601562 267.621094 142.398438 261.1875 135.765625 C 255.699219 130.105469 246.9375 129.203125 244.109375 129.058594 L 237.375 117.199219 C 237.78125 115.617188 238.074219 113.984375 238.25 112.335938 C 239.769531 98.09375 232.246094 85.570312 221.476562 84.421875 C 210.710938 83.273438 200.710938 93.925781 199.191406 108.167969 C 197.671875 122.410156 205.195312 134.933594 215.964844 136.082031 C 219.273438 136.433594 222.550781 135.703125 225.574219 133.996094 L 227.394531 137.4375 C 222.160156 139.992188 217.9375 143.992188 214.796875 149.351562 C 213.214844 148.574219 211.4375 148.136719 209.554688 148.136719 L 178.203125 148.136719 C 171.890625 148.136719 166.707031 153.058594 166.277344 159.261719 C 165.644531 157.652344 164.621094 156.253906 163.328125 155.175781 C 163.066406 149.585938 160.230469 145.210938 156.105469 144.179688 C 150.742188 142.839844 145.035156 147.332031 142.765625 154.503906 L 117.5625 157.6875 L 117.5625 151.375 C 119.476562 151.445312 121.363281 151.203125 123.171875 150.632812 C 128.585938 148.929688 132.792969 144.605469 135.015625 138.453125 C 137.1875 132.445312 137.199219 125.382812 135.058594 118.570312 C 132.914062 111.753906 128.859375 105.972656 123.640625 102.289062 C 118.296875 98.515625 112.371094 97.375 106.957031 99.082031 C 101.539062 100.785156 97.332031 105.109375 95.109375 111.261719 C 92.941406 117.269531 92.925781 124.332031 95.066406 131.144531 C 96.171875 134.660156 97.777344 137.890625 99.835938 140.753906 L 96.542969 153.246094 C 94.230469 154.378906 86.871094 158.496094 84.398438 166.070312 C 81.613281 174.601562 81.644531 198.347656 88.128906 207.597656 L 88.128906 253.558594 C 88.128906 254.390625 88.804688 255.066406 89.636719 255.066406 L 108.042969 255.066406 C 108.792969 255.066406 109.425781 254.519531 109.535156 253.78125 L 111.109375 243.230469 C 111.359375 241.542969 112.835938 240.269531 114.542969 240.269531 C 116.203125 240.269531 117.636719 241.449219 117.953125 243.078125 L 120.054688 253.847656 C 120.191406 254.554688 120.8125 255.066406 121.535156 255.066406 L 134.753906 255.066406 C 135.585938 255.066406 136.261719 254.390625 136.261719 253.558594 L 136.261719 238.300781 C 138.527344 240.71875 141.5625 242.179688 144.796875 242.179688 C 145.242188 242.179688 145.691406 242.152344 146.144531 242.09375 C 149.382812 241.683594 152.230469 239.867188 154.167969 236.980469 C 156.0625 234.15625 156.855469 230.628906 156.40625 227.054688 C 156.332031 226.46875 156.222656 225.886719 156.082031 225.308594 L 164.566406 224.238281 C 165.9375 224.066406 167.246094 223.613281 168.421875 222.921875 C 170.585938 226 174.164062 228.015625 178.203125 228.015625 L 185.929688 228.015625 C 186.503906 228.015625 187.03125 227.6875 187.285156 227.171875 C 187.539062 226.65625 187.476562 226.042969 187.125 225.585938 C 185.371094 223.3125 184.40625 220.316406 184.40625 217.148438 C 184.40625 210.496094 188.65625 205.082031 193.878906 205.082031 C 199.101562 205.082031 203.351562 210.496094 203.351562 217.148438 C 203.351562 220.316406 202.386719 223.3125 200.632812 225.585938 C 200.285156 226.042969 200.222656 226.65625 200.476562 227.171875 C 200.730469 227.6875 201.253906 228.015625 201.828125 228.015625 L 209.554688 228.015625 C 216.148438 228.015625 221.515625 222.652344 221.515625 216.058594 L 221.515625 208.902344 L 226.917969 207.371094 C 226.753906 221.765625 226.144531 236.867188 225.046875 253.457031 C 225.019531 253.875 225.164062 254.285156 225.449219 254.589844 C 225.734375 254.894531 226.132812 255.066406 226.550781 255.066406 L 241.769531 255.066406 C 242.574219 255.066406 243.238281 254.433594 243.273438 253.628906 L 244.53125 226.785156 C 244.589844 225.582031 245.578125 224.640625 246.78125 224.640625 C 247.914062 224.640625 248.875 225.484375 249.015625 226.609375 L 252.445312 253.746094 C 252.542969 254.5 253.183594 255.066406 253.941406 255.066406 L 268.835938 255.066406 C 269.257812 255.066406 269.660156 254.890625 269.945312 254.578125 C 270.234375 254.265625 270.375 253.851562 270.339844 253.429688 L 265.050781 191.324219 C 267.902344 189.335938 269.773438 187.4375 270.699219 185.597656 Z M 155.375 147.109375 C 157.734375 147.699219 159.476562 150.089844 160.09375 153.351562 C 158.675781 152.867188 157.128906 152.6875 155.546875 152.886719 L 146.125 154.078125 C 148.101562 149.28125 151.953125 146.253906 155.375 147.109375 Z M 87.265625 167.007812 C 89.71875 159.488281 98.324219 155.742188 98.410156 155.703125 C 98.839844 155.523438 99.160156 155.152344 99.28125 154.699219 L 102.9375 140.824219 C 103.058594 140.375 102.960938 139.898438 102.683594 139.53125 C 100.621094 136.796875 99.023438 133.671875 97.945312 130.242188 C 96 124.054688 96 117.675781 97.949219 112.289062 C 99.84375 107.042969 103.363281 103.375 107.859375 101.957031 C 112.359375 100.542969 117.34375 101.535156 121.902344 104.753906 C 126.582031 108.058594 130.234375 113.285156 132.179688 119.472656 C 134.125 125.660156 134.125 132.039062 132.179688 137.429688 C 130.28125 142.675781 126.761719 146.34375 122.265625 147.757812 C 120.414062 148.199219 118.429688 148.410156 116.230469 148.257812 C 114.214844 147.988281 112.179688 147.296875 110.179688 146.1875 C 109.449219 145.785156 108.53125 146.050781 108.128906 146.777344 C 107.722656 147.507812 107.988281 148.425781 108.71875 148.828125 C 110.613281 149.878906 112.578125 150.605469 114.546875 151.007812 L 114.546875 158.078125 C 111.976562 158.480469 109.691406 159.820312 108.089844 161.886719 C 106.425781 164.03125 105.699219 166.691406 106.039062 169.382812 L 108.644531 190 C 108.710938 190.53125 109.054688 190.984375 109.542969 191.195312 C 110.035156 191.40625 110.601562 191.34375 111.03125 191.03125 C 112.617188 189.875 114.527344 189.128906 116.554688 188.871094 C 119.410156 188.511719 122.199219 189.132812 124.421875 190.621094 C 126.574219 192.0625 127.925781 194.15625 128.222656 196.515625 C 128.550781 199.113281 127.542969 201.71875 125.5 203.699219 C 124.742188 202.984375 123.859375 202.378906 122.863281 201.925781 L 102.9375 192.804688 L 101.851562 172.835938 C 101.804688 172.003906 101.089844 171.367188 100.261719 171.410156 C 99.429688 171.457031 98.792969 172.167969 98.839844 173 L 99.972656 193.878906 C 100.003906 194.4375 100.34375 194.9375 100.851562 195.167969 L 121.609375 204.667969 C 124.832031 206.140625 126.375 209.890625 125.128906 213.207031 C 123.941406 216.359375 120.566406 218.167969 117.273438 217.417969 C 103.503906 214.265625 93.867188 210.175781 90.835938 206.191406 C 84.6875 198.105469 84.671875 174.953125 87.265625 167.007812 Z M 133.242188 252.050781 L 122.777344 252.050781 L 120.914062 242.5 C 120.324219 239.460938 117.644531 237.253906 114.546875 237.253906 C 111.355469 237.253906 108.597656 239.632812 108.125 242.785156 L 106.746094 252.050781 L 91.144531 252.050781 L 91.144531 210.652344 C 96.09375 214.445312 104.570312 217.316406 112.351562 219.324219 L 112.511719 220.582031 C 112.851562 223.273438 114.21875 225.671875 116.363281 227.332031 C 118.507812 228.996094 121.167969 229.722656 123.863281 229.382812 L 132.347656 228.3125 C 132.351562 228.902344 132.394531 229.496094 132.46875 230.082031 C 132.609375 231.21875 132.875 232.304688 133.242188 233.328125 Z M 164.1875 221.246094 L 153.917969 222.542969 C 153.457031 222.601562 153.050781 222.867188 152.8125 223.265625 C 152.574219 223.660156 152.53125 224.148438 152.695312 224.578125 C 153.046875 225.496094 153.289062 226.457031 153.410156 227.433594 C 153.773438 230.285156 153.152344 233.078125 151.664062 235.300781 C 150.21875 237.453125 148.125 238.804688 145.765625 239.101562 C 140.816406 239.722656 136.195312 235.511719 135.460938 229.703125 C 135.335938 228.726562 135.328125 227.738281 135.441406 226.761719 C 135.496094 226.300781 135.332031 225.839844 135.003906 225.515625 C 134.671875 225.191406 134.210938 225.03125 133.753906 225.09375 L 123.484375 226.390625 C 121.589844 226.628906 119.71875 226.117188 118.210938 224.949219 C 116.707031 223.78125 115.742188 222.09375 115.503906 220.203125 L 115.492188 220.097656 C 115.863281 220.1875 116.234375 220.273438 116.601562 220.355469 C 117.324219 220.523438 118.050781 220.601562 118.769531 220.601562 C 122.769531 220.601562 126.496094 218.132812 127.953125 214.269531 C 128.992188 211.503906 128.6875 208.527344 127.347656 206.097656 C 130.242188 203.433594 131.679688 199.800781 131.214844 196.136719 C 130.808594 192.898438 128.988281 190.050781 126.101562 188.113281 C 123.277344 186.21875 119.75 185.425781 116.179688 185.878906 C 114.480469 186.09375 112.84375 186.585938 111.347656 187.324219 L 109.03125 169.003906 C 108.792969 167.113281 109.304688 165.242188 110.472656 163.734375 C 111.640625 162.226562 113.328125 161.265625 115.21875 161.027344 L 155.921875 155.878906 C 157.8125 155.640625 159.6875 156.152344 161.195312 157.320312 C 162.699219 158.492188 163.664062 160.175781 163.902344 162.070312 L 165.992188 178.609375 C 165.144531 178.488281 164.285156 178.425781 163.421875 178.425781 C 155.105469 178.425781 148.339844 184.027344 148.339844 190.914062 C 148.339844 197.800781 155.105469 203.402344 163.421875 203.402344 C 164.371094 203.402344 165.316406 203.328125 166.246094 203.183594 L 166.246094 216.054688 C 166.246094 217.535156 166.515625 218.949219 167.007812 220.257812 C 166.152344 220.777344 165.195312 221.117188 164.1875 221.246094 Z M 218.496094 216.058594 C 218.496094 220.988281 214.488281 225 209.554688 225 L 204.550781 225 C 205.734375 222.652344 206.371094 219.949219 206.371094 217.148438 C 206.371094 208.832031 200.765625 202.066406 193.878906 202.066406 C 186.992188 202.066406 181.390625 208.832031 181.390625 217.148438 C 181.390625 219.949219 182.027344 222.652344 183.210938 225 L 178.203125 225 C 173.273438 225 169.261719 220.988281 169.261719 216.058594 L 169.261719 201.320312 C 169.261719 200.851562 169.042969 200.410156 168.667969 200.121094 C 168.296875 199.835938 167.8125 199.742188 167.359375 199.867188 C 166.085938 200.210938 164.765625 200.386719 163.421875 200.386719 C 156.769531 200.386719 151.359375 196.136719 151.359375 190.914062 C 151.359375 185.691406 156.769531 181.441406 163.421875 181.441406 C 164.765625 181.441406 166.085938 181.617188 167.359375 181.964844 C 167.8125 182.085938 168.296875 181.992188 168.667969 181.707031 C 169.042969 181.421875 169.261719 180.976562 169.261719 180.507812 L 169.261719 160.097656 C 169.261719 155.164062 173.273438 151.152344 178.203125 151.152344 L 209.554688 151.152344 C 214.488281 151.152344 218.496094 155.164062 218.496094 160.097656 L 218.496094 180.507812 C 218.496094 180.976562 218.71875 181.421875 219.089844 181.707031 C 219.464844 181.992188 219.949219 182.085938 220.402344 181.964844 C 221.671875 181.617188 222.996094 181.441406 224.335938 181.441406 C 227.761719 181.441406 231.019531 182.613281 233.289062 184.582031 L 216.890625 190.835938 C 212.289062 192.589844 209.816406 197.65625 211.265625 202.363281 C 212.320312 205.796875 215.1875 208.1875 218.496094 208.820312 Z M 267.195312 252.050781 L 255.273438 252.050781 L 252.007812 226.230469 C 251.675781 223.601562 249.429688 221.621094 246.78125 221.621094 C 243.964844 221.621094 241.652344 223.828125 241.519531 226.644531 L 240.328125 252.050781 L 228.164062 252.050781 C 229.222656 235.652344 229.804688 220.691406 229.945312 206.40625 C 236.175781 204.390625 243.441406 201.851562 250.125 199.039062 C 255 196.988281 259.007812 195.035156 262.179688 193.15625 Z M 222.070312 205.707031 C 218.730469 206.714844 215.175781 204.816406 214.148438 201.476562 C 213.167969 198.28125 214.84375 194.84375 217.96875 193.652344 L 249.222656 181.730469 C 252.3125 180.554688 254.15625 177.441406 253.703125 174.167969 L 250.847656 153.546875 C 250.734375 152.71875 249.972656 152.144531 249.148438 152.257812 C 248.320312 152.371094 247.746094 153.132812 247.859375 153.960938 L 250.714844 174.578125 C 250.972656 176.457031 249.917969 178.238281 248.148438 178.914062 L 236.386719 183.398438 C 234.636719 181.46875 232.289062 180.03125 229.621094 179.210938 C 229.308594 170.421875 228.78125 161.890625 228.054688 153.847656 C 227.980469 153.019531 227.246094 152.414062 226.417969 152.484375 C 225.585938 152.558594 224.976562 153.292969 225.050781 154.121094 C 225.753906 161.878906 226.265625 170.097656 226.578125 178.566406 C 225.84375 178.476562 225.09375 178.425781 224.335938 178.425781 C 223.386719 178.425781 222.441406 178.5 221.515625 178.644531 L 221.515625 160.097656 C 221.515625 156.464844 219.882812 153.207031 217.316406 151.011719 C 220.445312 145.585938 224.625 141.828125 230.0625 139.539062 C 230.453125 139.375 230.757812 139.054688 230.898438 138.65625 C 231.042969 138.257812 231.007812 137.816406 230.8125 137.441406 L 228.089844 132.300781 C 229.113281 131.492188 230.097656 130.570312 231.027344 129.519531 C 231.582031 128.898438 231.527344 127.945312 230.902344 127.390625 C 230.28125 126.839844 229.328125 126.894531 228.773438 127.515625 C 225.164062 131.578125 220.730469 133.554688 216.28125 133.082031 C 207.167969 132.109375 200.847656 121.078125 202.191406 108.488281 C 203.535156 95.898438 212.039062 86.449219 221.15625 87.421875 C 230.269531 88.394531 236.59375 99.425781 235.25 112.015625 C 235.066406 113.714844 234.75 115.394531 234.304688 117.011719 C 234.199219 117.394531 234.25 117.808594 234.449219 118.15625 L 241.90625 131.285156 C 242.171875 131.757812 242.675781 132.050781 243.21875 132.050781 C 243.320312 132.050781 253.445312 132.121094 259.023438 137.867188 C 264.71875 143.742188 273.332031 173.660156 268.003906 184.246094 C 265.179688 189.855469 248.007812 197.878906 222.070312 205.707031 Z M 222.070312 205.707031 " fill-opacity="1" fill-rule="nonzero"/></g></svg>